<svg width="1330" height="475" viewBox="0 0 1330 475" fill="none" xmlns="http://www.w3.org/2000/svg">
<path d="M44.5 46.3094C46.9752 44.8803 50.0248 44.8803 52.5 46.3094L92.5644 69.4406C95.0396 70.8697 96.5644 73.5107 96.5644 76.3688V122.631C96.5644 125.489 95.0396 128.13 92.5644 129.559L52.5 152.691C50.0248 154.12 46.9752 154.12 44.5 152.691L4.43559 129.559C1.96038 128.13 0.435589 125.489 0.435589 122.631V76.3688C0.435589 73.5107 1.96038 70.8697 4.43559 69.4406L44.5 46.3094Z" fill="#EBF2FC"/>
<g opacity="0.5">
<path fill-rule="evenodd" clip-rule="evenodd" d="M1358.22 446.072C1358.22 450.265 1355.98 454.142 1352.34 456.242C1344.07 461.022 1329.17 469.621 1321.78 473.887C1320.87 474.409 1319.76 474.409 1318.84 473.887C1317.93 473.366 1317.38 472.389 1317.38 471.347C1317.38 462.88 1317.38 445.889 1317.38 436.416C1317.38 432.216 1319.62 428.339 1323.25 426.239C1331.52 421.466 1346.42 412.86 1353.81 408.594C1354.72 408.073 1355.84 408.073 1356.75 408.594C1357.66 409.123 1358.22 410.092 1358.22 411.142L1358.22 446.072Z" fill="#C8D8EC"/>
<path fill-rule="evenodd" clip-rule="evenodd" d="M1407.83 417.438C1407.83 421.638 1405.59 425.515 1401.96 427.615C1393.69 432.381 1378.82 440.972 1371.44 445.231C1370.53 445.76 1369.41 445.76 1368.5 445.231C1367.59 444.71 1367.03 443.74 1367.03 442.69C1367.03 434.224 1367.03 417.233 1367.03 407.76C1367.03 403.56 1369.27 399.683 1372.91 397.583C1381.17 392.817 1396.04 384.226 1403.43 379.967C1404.34 379.446 1405.46 379.446 1406.36 379.967C1407.27 380.488 1407.83 381.458 1407.83 382.508C1407.83 390.974 1407.83 407.958 1407.83 417.438Z" fill="#C8D8EC"/>
<path fill-rule="evenodd" clip-rule="evenodd" d="M1358.22 389.119C1358.22 393.311 1355.98 397.188 1352.34 399.288C1344.07 404.069 1329.17 412.667 1321.78 416.934C1320.87 417.455 1319.76 417.455 1318.84 416.934C1317.93 416.405 1317.38 415.435 1317.38 414.385C1317.38 405.86 1317.38 388.678 1317.38 379.132C1317.38 374.932 1319.62 371.055 1323.25 368.955C1331.52 364.182 1346.42 355.583 1353.81 351.317C1354.72 350.796 1355.84 350.796 1356.75 351.317C1357.66 351.846 1358.22 352.815 1358.22 353.865C1358.22 362.39 1358.22 379.573 1358.22 389.119Z" fill="#C8D8EC"/>
<path fill-rule="evenodd" clip-rule="evenodd" d="M1457.45 388.788C1457.45 392.988 1455.21 396.865 1451.58 398.965C1443.31 403.738 1428.43 412.33 1421.04 416.589C1420.13 417.117 1419.01 417.117 1418.1 416.589C1417.2 416.067 1416.64 415.098 1416.64 414.048C1416.64 405.581 1416.64 388.597 1416.64 379.118C1416.64 374.925 1418.87 371.048 1422.51 368.948C1430.78 364.175 1445.66 355.584 1453.04 351.317C1453.95 350.796 1455.07 350.796 1455.98 351.317C1456.89 351.846 1457.45 352.815 1457.45 353.865C1457.45 362.332 1457.45 379.316 1457.45 388.788Z" fill="#C8D8EC"/>
<path fill-rule="evenodd" clip-rule="evenodd" d="M1407.83 360.46C1407.83 364.66 1405.59 368.537 1401.96 370.637C1393.69 375.41 1378.82 383.994 1371.44 388.253C1370.53 388.781 1369.41 388.781 1368.5 388.253C1367.59 387.731 1367.03 386.762 1367.03 385.712C1367.03 377.187 1367.03 360.004 1367.03 350.459C1367.03 346.258 1369.27 342.381 1372.91 340.281C1381.17 335.516 1396.04 326.932 1403.43 322.673C1404.34 322.144 1405.46 322.144 1406.36 322.673C1407.27 323.194 1407.83 324.164 1407.83 325.214C1407.83 333.739 1407.83 350.914 1407.83 360.46Z" fill="#C8D8EC"/>
<path fill-rule="evenodd" clip-rule="evenodd" d="M1267.72 289.972C1267.72 285.772 1269.96 281.895 1273.6 279.795C1281.87 275.022 1296.77 266.423 1304.16 262.157C1305.07 261.629 1306.18 261.629 1307.09 262.157C1308.01 262.679 1308.56 263.648 1308.56 264.698C1308.56 273.289 1308.56 290.677 1308.56 300.296C1308.56 304.495 1306.32 308.374 1302.69 310.472C1294.42 315.249 1279.52 323.849 1272.13 328.116C1271.22 328.64 1270.1 328.64 1269.19 328.116C1268.28 327.591 1267.72 326.621 1267.72 325.572C1267.72 316.979 1267.72 299.591 1267.72 289.972Z" fill="#C8D8EC"/>
<path fill-rule="evenodd" clip-rule="evenodd" d="M1457.45 331.802C1457.45 336.002 1455.21 339.879 1451.58 341.979C1443.31 346.752 1428.43 355.344 1421.04 359.61C1420.13 360.131 1419.01 360.131 1418.1 359.61C1417.2 359.081 1416.64 358.112 1416.64 357.062C1416.64 348.537 1416.64 331.362 1416.64 321.816C1416.64 317.623 1418.88 313.742 1422.51 311.644C1430.78 306.871 1445.66 298.282 1453.04 294.02C1453.95 293.496 1455.07 293.496 1455.98 294.02C1456.89 294.545 1457.45 295.514 1457.45 296.563C1457.45 305.089 1457.45 322.264 1457.45 331.802Z" fill="#C8D8EC"/>
<path fill-rule="evenodd" clip-rule="evenodd" d="M1407.83 303.163C1407.83 307.361 1405.59 311.24 1401.96 313.338C1393.69 318.108 1378.82 326.691 1371.44 330.95C1370.53 331.479 1369.41 331.479 1368.5 330.95C1367.59 330.429 1367.03 329.46 1367.03 328.41C1367.03 319.818 1367.03 302.424 1367.03 292.803C1367.03 288.606 1369.27 284.727 1372.91 282.629C1381.17 277.857 1396.04 269.272 1403.43 265.009C1404.34 264.484 1405.46 264.484 1406.36 265.009C1407.27 265.534 1407.83 266.504 1407.83 267.553C1407.83 276.147 1407.83 293.541 1407.83 303.163Z" fill="#C8D8EC"/>
<path fill-rule="evenodd" clip-rule="evenodd" d="M1302.67 426.253C1306.31 428.346 1308.55 432.23 1308.55 436.423C1308.55 445.903 1308.55 462.887 1308.55 471.353C1308.55 472.396 1307.99 473.372 1307.08 473.894C1306.17 474.415 1305.05 474.415 1304.14 473.894C1296.76 469.628 1281.87 461.036 1273.61 456.263C1269.98 454.163 1267.74 450.286 1267.74 446.086C1267.74 436.614 1267.74 419.63 1267.74 411.163C1267.74 410.113 1268.3 409.144 1269.21 408.623C1270.11 408.094 1271.23 408.094 1272.14 408.623C1279.52 412.881 1294.41 421.48 1302.67 426.253Z" fill="#A6B7CA"/>
<path fill-rule="evenodd" clip-rule="evenodd" d="M1253.06 397.614C1256.69 399.707 1258.93 403.591 1258.93 407.784C1258.93 417.264 1258.93 434.248 1258.93 442.715C1258.93 443.765 1258.37 444.734 1257.46 445.255C1256.55 445.777 1255.43 445.777 1254.53 445.255C1247.14 440.996 1232.27 432.405 1224.01 427.64C1220.37 425.539 1218.13 421.662 1218.13 417.462C1218.13 407.99 1218.13 390.998 1218.13 382.539C1218.13 381.482 1218.69 380.52 1219.6 379.991C1220.51 379.47 1221.63 379.47 1222.54 379.991C1229.92 384.25 1244.79 392.841 1253.06 397.614Z" fill="#A6B7CA"/>
<path fill-rule="evenodd" clip-rule="evenodd" d="M1302.67 368.972C1306.31 371.072 1308.55 374.949 1308.55 379.149C1308.55 388.688 1308.55 405.863 1308.55 414.388C1308.55 415.438 1307.99 416.407 1307.08 416.928C1306.17 417.457 1305.05 417.457 1304.14 416.928C1296.76 412.67 1281.87 404.078 1273.61 399.298C1269.98 397.205 1267.74 393.328 1267.74 389.128C1267.74 379.582 1267.74 362.415 1267.74 353.89C1267.74 352.84 1268.3 351.87 1269.21 351.341C1270.11 350.82 1271.23 350.82 1272.14 351.341C1279.52 355.608 1294.41 364.199 1302.67 368.972Z" fill="#A6B7CA"/>
<path fill-rule="evenodd" clip-rule="evenodd" d="M1168.47 353.865C1168.47 352.815 1169.03 351.846 1169.94 351.317C1170.84 350.796 1171.97 350.796 1172.88 351.317C1180.26 355.584 1195.16 364.189 1203.44 368.962C1207.07 371.062 1209.31 374.939 1209.31 379.14C1209.31 388.612 1209.31 405.596 1209.31 414.063C1209.31 415.113 1208.75 416.082 1207.84 416.603C1206.93 417.132 1205.81 417.132 1204.91 416.603C1197.51 412.337 1182.61 403.738 1174.35 398.965C1170.71 396.865 1168.47 392.988 1168.47 388.788C1168.47 379.316 1168.47 362.332 1168.47 353.865Z" fill="#A6B7CA"/>
<path fill-rule="evenodd" clip-rule="evenodd" d="M1253.06 340.313C1256.69 342.413 1258.93 346.29 1258.93 350.49L1258.93 385.729C1258.93 386.779 1258.37 387.748 1257.46 388.269C1256.55 388.798 1255.43 388.798 1254.53 388.269C1247.14 384.011 1232.27 375.427 1224.01 370.654C1220.37 368.554 1218.13 364.677 1218.13 360.477L1218.13 325.238C1218.13 324.188 1218.69 323.219 1219.6 322.697C1220.51 322.168 1221.63 322.168 1222.54 322.697C1229.92 326.956 1244.79 335.547 1253.06 340.313Z" fill="#A6B7CA"/>
<path fill-rule="evenodd" clip-rule="evenodd" d="M1323.26 310.486C1319.63 308.387 1317.39 304.509 1317.39 300.31C1317.39 290.691 1317.39 273.288 1317.39 264.69C1317.39 263.64 1317.95 262.67 1318.86 262.149C1319.77 261.62 1320.89 261.62 1321.8 262.149C1329.18 266.415 1344.07 275.007 1352.33 279.779C1355.96 281.879 1358.2 285.757 1358.2 289.949C1358.2 299.576 1358.2 316.976 1358.2 325.571C1358.2 326.621 1357.64 327.591 1356.73 328.116C1355.83 328.64 1354.71 328.64 1353.8 328.116C1346.42 323.851 1331.53 315.259 1323.26 310.486Z" fill="#A6B7CA"/>
<path fill-rule="evenodd" clip-rule="evenodd" d="M1203.44 311.664C1207.07 313.763 1209.31 317.645 1209.31 321.837C1209.31 331.383 1209.31 348.551 1209.31 357.076C1209.31 358.126 1208.75 359.095 1207.84 359.624C1206.93 360.145 1205.81 360.145 1204.91 359.624C1197.51 355.358 1182.61 346.752 1174.35 341.979C1170.71 339.879 1168.47 336.002 1168.47 331.802C1168.47 322.263 1168.47 305.09 1168.47 296.565C1168.47 295.516 1169.03 294.546 1169.94 294.022C1170.84 293.497 1171.97 293.497 1172.88 294.022C1180.26 298.288 1195.16 306.889 1203.44 311.664Z" fill="#A6B7CA"/>
<path fill-rule="evenodd" clip-rule="evenodd" d="M1253.06 282.652C1256.69 284.75 1258.93 288.629 1258.93 292.827C1258.93 302.45 1258.93 319.849 1258.93 328.448C1258.93 329.498 1258.37 330.467 1257.46 330.989C1256.55 331.517 1255.43 331.517 1254.53 330.989C1247.14 326.73 1232.27 318.139 1224.01 313.37C1220.37 311.272 1218.13 307.393 1218.13 303.195C1218.13 293.572 1218.13 276.172 1218.13 267.576C1218.13 266.527 1218.69 265.557 1219.6 265.032C1220.51 264.507 1221.63 264.507 1222.54 265.032C1229.92 269.295 1244.79 277.881 1253.06 282.652Z" fill="#A6B7CA"/>
<path fill-rule="evenodd" clip-rule="evenodd" d="M1250.17 223.654C1251.08 224.179 1251.64 225.148 1251.64 226.198C1251.64 227.247 1251.08 228.217 1250.17 228.741C1242.78 233.007 1219.63 246.378 1219.63 246.378L1219.61 206.01C1219.61 206.01 1242.78 219.387 1250.17 223.654Z" fill="#A6B7CA"/>
<path fill-rule="evenodd" clip-rule="evenodd" d="M1276.58 340.831C1275.68 340.306 1275.12 339.336 1275.12 338.287C1275.12 337.238 1275.68 336.268 1276.58 335.743C1283.97 331.477 1298.86 322.882 1307.13 318.106C1310.77 316.008 1315.25 316.008 1318.88 318.106C1327.15 322.88 1342.03 331.472 1349.41 335.736C1350.32 336.26 1350.88 337.23 1350.88 338.28C1350.88 339.329 1350.32 340.299 1349.41 340.823C1342.03 345.089 1327.14 353.685 1318.87 358.459C1315.23 360.558 1310.75 360.558 1307.12 358.459C1298.85 353.687 1283.97 345.095 1276.58 340.831Z" fill="#DDE9F8"/>
<path fill-rule="evenodd" clip-rule="evenodd" d="M1174.35 284.7L1209.31 264.18C1209.31 264.18 1209.31 291.203 1209.31 299.799C1209.31 300.849 1208.75 301.818 1207.84 302.343C1206.93 302.867 1205.81 302.867 1204.91 302.343C1197.51 298.076 1174.35 284.7 1174.35 284.7Z" fill="#DDE9F8"/>
<path fill-rule="evenodd" clip-rule="evenodd" d="M1299.79 252.308C1300.69 252.832 1301.25 253.802 1301.25 254.852C1301.25 255.901 1300.69 256.87 1299.79 257.395C1292.39 261.661 1277.51 270.257 1269.24 275.031C1265.6 277.13 1261.12 277.13 1257.49 275.031C1249.22 270.26 1234.35 261.674 1226.97 257.412C1226.06 256.887 1225.5 255.918 1225.5 254.869C1225.5 253.818 1226.06 252.849 1226.97 252.324C1234.36 248.059 1249.24 239.463 1257.51 234.688C1261.15 232.589 1265.63 232.589 1269.26 234.688C1277.53 239.459 1292.4 248.045 1299.79 252.308Z" fill="#DDE9F8"/>
<path fill-rule="evenodd" clip-rule="evenodd" d="M1399.02 252.294C1399.93 252.819 1400.49 253.788 1400.49 254.837C1400.49 255.887 1399.93 256.857 1399.02 257.381C1391.63 261.646 1376.74 270.243 1368.47 275.017C1364.84 277.116 1360.36 277.116 1356.73 275.017C1348.46 270.244 1333.58 261.652 1326.19 257.388C1325.28 256.863 1324.72 255.894 1324.72 254.845C1324.72 253.795 1325.28 252.825 1326.19 252.301C1333.58 248.035 1348.47 239.439 1356.74 234.664C1360.37 232.565 1364.85 232.565 1368.49 234.664C1376.75 239.438 1391.64 248.03 1399.02 252.294Z" fill="#DDE9F8"/>
<path fill-rule="evenodd" clip-rule="evenodd" d="M1349.4 223.634C1350.31 224.159 1350.87 225.128 1350.87 226.177C1350.87 227.227 1350.31 228.196 1349.4 228.721C1342.02 232.987 1327.13 241.583 1318.86 246.358C1315.22 248.456 1310.74 248.456 1307.11 246.358C1298.84 241.586 1283.97 233 1276.59 228.738C1275.68 228.213 1275.12 227.243 1275.12 226.194C1275.12 225.145 1275.68 224.175 1276.59 223.65C1283.98 219.385 1298.86 210.789 1307.14 206.014C1310.77 203.916 1315.25 203.916 1318.89 206.014C1327.15 210.786 1342.02 219.372 1349.4 223.634Z" fill="#DDE9F8"/>
<path fill-rule="evenodd" clip-rule="evenodd" d="M1299.79 195.008C1300.69 195.532 1301.25 196.502 1301.25 197.551C1301.25 198.601 1300.69 199.571 1299.79 200.095C1292.39 204.36 1277.51 212.957 1269.23 217.731C1265.6 219.83 1261.12 219.83 1257.48 217.731C1249.21 212.955 1234.32 204.355 1226.93 200.088C1226.02 199.563 1225.46 198.593 1225.46 197.544C1225.46 196.495 1226.02 195.525 1226.93 195C1234.32 190.735 1249.21 182.139 1257.48 177.364C1261.11 175.266 1265.59 175.266 1269.22 177.364C1277.49 182.141 1292.39 190.741 1299.79 195.008Z" fill="#DDE9F8"/>
<path fill-rule="evenodd" clip-rule="evenodd" d="M1399.02 195.008C1399.93 195.533 1400.49 196.503 1400.49 197.552C1400.49 198.601 1399.93 199.571 1399.02 200.096C1391.64 204.358 1376.77 212.944 1368.5 217.715C1364.87 219.814 1360.39 219.814 1356.75 217.715C1348.49 212.944 1333.62 204.358 1326.24 200.096C1325.33 199.571 1324.77 198.601 1324.77 197.552C1324.77 196.503 1325.33 195.533 1326.24 195.008C1333.62 190.746 1348.49 182.16 1356.75 177.388C1360.39 175.29 1364.87 175.29 1368.5 177.388C1376.77 182.16 1391.64 190.746 1399.02 195.008Z" fill="#DDE9F8"/>
<path fill-rule="evenodd" clip-rule="evenodd" d="M1349.4 166.358C1350.31 166.883 1350.87 167.852 1350.87 168.902C1350.87 169.952 1350.31 170.921 1349.4 171.446C1342.02 175.708 1327.15 184.294 1318.89 189.065C1315.25 191.164 1310.77 191.164 1307.14 189.065C1298.86 184.289 1283.96 175.689 1276.58 171.422C1275.67 170.897 1275.11 169.927 1275.11 168.878C1275.11 167.829 1275.67 166.859 1276.58 166.334C1283.96 162.072 1298.83 153.486 1307.1 148.715C1310.73 146.616 1315.21 146.616 1318.84 148.715C1327.12 153.491 1342.01 162.091 1349.4 166.358Z" fill="#DDE9F8"/>
<path fill-rule="evenodd" clip-rule="evenodd" d="M1118.99 199.584C1123.07 201.938 1125.58 206.29 1125.58 211C1125.58 221.791 1125.58 241.314 1125.58 250.96C1125.58 252.138 1124.96 253.225 1123.94 253.81C1122.91 254.403 1121.66 254.403 1120.64 253.81C1112.35 249.024 1095.66 239.386 1086.39 234.032C1082.31 231.676 1079.8 227.327 1079.8 222.623C1079.8 211.824 1079.8 192.304 1079.8 182.661C1079.8 181.483 1080.42 180.396 1081.45 179.807C1082.46 179.219 1083.72 179.219 1084.74 179.807C1093.02 184.591 1109.72 194.23 1118.99 199.584Z" fill="#30B01E"/>
<path fill-rule="evenodd" clip-rule="evenodd" d="M1181.29 222.596C1181.29 227.308 1178.78 231.657 1174.7 234.013C1165.42 239.368 1148.7 249.014 1140.42 253.8C1139.39 254.393 1138.14 254.393 1137.12 253.8C1136.1 253.215 1135.47 252.128 1135.47 250.95C1135.47 241.312 1135.47 221.805 1135.47 211.014C1135.47 206.304 1137.99 201.953 1142.06 199.599C1151.34 194.24 1168.06 184.592 1176.35 179.805C1177.37 179.217 1178.62 179.217 1179.64 179.805C1180.66 180.394 1181.29 181.482 1181.29 182.659C1181.29 192.298 1181.29 211.805 1181.29 222.596Z" fill="#47CF34"/>
<path fill-rule="evenodd" clip-rule="evenodd" d="M1171.38 165.542C1172.4 166.131 1173.03 167.219 1173.03 168.396C1173.03 169.573 1172.4 170.661 1171.38 171.249C1163.09 176.035 1146.39 185.678 1137.11 191.035C1133.03 193.389 1128.01 193.389 1123.93 191.035C1114.66 185.68 1097.96 176.041 1089.68 171.258C1088.66 170.67 1088.03 169.581 1088.03 168.404C1088.03 167.227 1088.66 166.139 1089.68 165.551C1097.97 160.765 1114.67 151.122 1123.95 145.766C1128.03 143.411 1133.05 143.411 1137.13 145.766C1146.4 151.12 1163.1 160.759 1171.38 165.542Z" fill="#77F565"/>
<path fill-rule="evenodd" clip-rule="evenodd" d="M940.682 36.499C943.354 38.0708 945 40.9758 945 44.1206C945 51.3253 945 64.3598 945 70.8C945 71.5865 944.59 72.3125 943.92 72.703C943.251 73.099 942.431 73.099 941.761 72.703C936.331 69.5076 925.39 63.0729 919.318 59.498C916.646 57.9251 915 55.0212 915 51.8808C915 44.6706 915 31.6383 915 25.2002C915 24.4137 915.41 23.6878 916.08 23.2945C916.743 22.9018 917.569 22.9018 918.239 23.2945C923.663 26.4888 934.604 32.9241 940.682 36.499Z" fill="#C1CDDA"/>
<path fill-rule="evenodd" clip-rule="evenodd" d="M982 51.8672C982 55.0135 980.355 57.9177 977.684 59.4908C971.607 63.0661 960.663 69.5072 955.236 72.703C954.568 73.099 953.748 73.099 953.079 72.703C952.41 72.3124 952 71.5864 952 70.7998C952 64.3643 952 51.3392 952 44.1336C952 40.9884 953.645 38.0831 956.315 36.5111C962.392 32.933 973.335 26.4909 978.764 23.2946C979.431 22.9018 980.254 22.9018 980.921 23.2945C981.589 23.6878 982 24.4139 982 25.1999C982 31.6365 982 44.6616 982 51.8672Z" fill="#D9E4F2"/>
<path fill-rule="evenodd" clip-rule="evenodd" d="M975.895 14.5673C976.578 14.9656 977 15.7009 977 16.4969C977 17.2929 976.578 18.0288 975.895 18.4265C970.337 21.6629 959.134 28.1836 952.914 31.806C950.179 33.398 946.809 33.398 944.075 31.806C937.854 28.1847 926.657 21.6668 921.105 18.4321C920.42 18.0344 920 17.2985 920 16.5025C920 15.7065 920.42 14.9707 921.105 14.573C926.662 11.3371 937.86 4.81587 944.086 1.19401C946.82 -0.398001 950.19 -0.398005 952.925 1.194C959.145 4.81474 970.338 11.3326 975.895 14.5673Z" fill="#E7F0FA"/>
<path fill-rule="evenodd" clip-rule="evenodd" d="M733.386 392.739C736.86 394.688 739 398.29 739 402.189C739 411.123 739 427.286 739 435.272C739 436.247 738.467 437.148 737.597 437.632C736.727 438.123 735.66 438.123 734.79 437.632C727.731 433.669 713.508 425.69 705.614 421.258C702.14 419.307 700 415.706 700 411.812C700 402.871 700 386.711 700 378.728C700 377.753 700.533 376.853 701.403 376.365C702.266 375.878 703.34 375.878 704.21 376.365C711.262 380.326 725.485 388.306 733.386 392.739Z" fill="#30B01E"/>
<path fill-rule="evenodd" clip-rule="evenodd" d="M785 411.795C785 415.697 782.916 419.298 779.533 421.249C771.835 425.682 757.973 433.669 751.1 437.632C750.252 438.123 749.214 438.123 748.367 437.632C747.519 437.147 747 436.247 747 435.272C747 427.292 747 411.141 747 402.206C747 398.306 749.084 394.703 752.466 392.754C760.163 388.317 774.024 380.329 780.9 376.365C781.746 375.878 782.788 375.878 783.633 376.365C784.479 376.853 785 377.753 785 378.728C785 386.709 785 402.86 785 411.795Z" fill="#47CF34"/>
<path fill-rule="evenodd" clip-rule="evenodd" d="M776.624 364.099C777.475 364.594 778 365.507 778 366.496C778 367.485 777.475 368.399 776.624 368.894C769.7 372.915 755.746 381.016 747.998 385.517C744.592 387.494 740.394 387.494 736.988 385.517C729.24 381.017 715.292 372.919 708.376 368.901C707.523 368.406 707 367.492 707 366.503C707 365.514 707.523 364.6 708.376 364.106C715.299 360.086 729.247 351.983 737.002 347.483C740.408 345.506 744.605 345.506 748.011 347.483C755.76 351.982 769.702 360.08 776.624 364.099Z" fill="#77F565"/>
<path fill-rule="evenodd" clip-rule="evenodd" d="M1022.34 279.619C1024.77 281.021 1026.27 283.613 1026.27 286.418C1026.27 292.846 1026.27 304.474 1026.27 310.219C1026.27 310.921 1025.9 311.569 1025.29 311.917C1024.68 312.27 1023.93 312.27 1023.33 311.917C1018.39 309.067 1008.44 303.326 1002.92 300.137C1000.5 298.734 999 296.143 999 293.341C999 286.909 999 275.283 999 269.539C999 268.838 999.373 268.19 999.981 267.839C1000.58 267.489 1001.34 267.489 1001.94 267.839C1006.87 270.689 1016.82 276.43 1022.34 279.619Z" fill="#287EE7"/>
<path fill-rule="evenodd" clip-rule="evenodd" d="M1059.45 293.325C1059.45 296.132 1057.95 298.722 1055.52 300.126C1050 303.315 1040.04 309.06 1035.1 311.911C1034.5 312.264 1033.75 312.264 1033.14 311.911C1032.53 311.563 1032.16 310.915 1032.16 310.213C1032.16 304.473 1032.16 292.854 1032.16 286.427C1032.16 283.622 1033.66 281.03 1036.09 279.628C1041.61 276.436 1051.57 270.69 1056.5 267.839C1057.11 267.488 1057.86 267.488 1058.47 267.839C1059.07 268.189 1059.45 268.837 1059.45 269.538C1059.45 275.28 1059.45 286.898 1059.45 293.325Z" fill="#57A3FF"/>
<path fill-rule="evenodd" clip-rule="evenodd" d="M1053.55 259.343C1054.15 259.694 1054.53 260.342 1054.53 261.043C1054.53 261.744 1054.15 262.392 1053.55 262.742C1048.61 265.593 1038.66 271.337 1033.14 274.527C1030.71 275.929 1027.72 275.929 1025.29 274.527C1019.76 271.338 1009.82 265.597 1004.89 262.747C1004.28 262.397 1003.9 261.749 1003.9 261.048C1003.9 260.347 1004.28 259.699 1004.89 259.348C1009.82 256.498 1019.77 250.754 1025.3 247.564C1027.73 246.162 1030.72 246.162 1033.15 247.564C1038.67 250.753 1048.61 256.494 1053.55 259.343Z" fill="#9FCDFF"/>
</g>
</svg>
