<svg width="1051" height="457" viewBox="0 0 1051 457" fill="none" xmlns="http://www.w3.org/2000/svg">
<path d="M191.5 1.3094C193.975 -0.11966 197.025 -0.119661 199.5 1.3094L279.402 47.4406C281.877 48.8697 283.402 51.5107 283.402 54.3688V146.631C283.402 149.489 281.877 152.13 279.402 153.559L199.5 199.691C197.025 201.12 193.975 201.12 191.5 199.691L111.598 153.559C109.123 152.13 107.598 149.489 107.598 146.631V54.3688C107.598 51.5107 109.123 48.8697 111.598 47.4406L191.5 1.3094Z" fill="#EBF2FC"/>
<path d="M935.5 203.309C937.975 201.88 941.025 201.88 943.5 203.309L1046.78 262.941C1049.26 264.37 1050.78 267.011 1050.78 269.869V389.131C1050.78 391.989 1049.26 394.63 1046.78 396.059L943.5 455.691C941.025 457.12 937.975 457.12 935.5 455.691L832.216 396.059C829.741 394.63 828.216 391.989 828.216 389.131V269.869C828.216 267.011 829.741 264.37 832.216 262.941L935.5 203.309Z" fill="#EBF2FC"/>
<path d="M56.5 213.309C58.9752 211.88 62.0248 211.88 64.5 213.309L116.689 243.441C119.164 244.87 120.689 247.511 120.689 250.369V310.631C120.689 313.489 119.164 316.13 116.689 317.559L64.5 347.691C62.0248 349.12 58.9752 349.12 56.5 347.691L4.31124 317.559C1.83603 316.13 0.311234 313.489 0.311234 310.631V250.369C0.311234 247.511 1.83603 244.87 4.31123 243.441L56.5 213.309Z" fill="#EBF2FC"/>
</svg>
