<svg width="746" height="1078" viewBox="0 0 746 1078" fill="none" xmlns="http://www.w3.org/2000/svg">
<path d="M221 718.5V763.5C221 780.069 234.431 793.5 251 793.5H507.5C524.069 793.5 537.5 806.931 537.5 823.5V977.5C537.5 994.069 524.069 1007.5 507.5 1007.5H32.5C15.9314 1007.5 2.5 1020.93 2.5 1037.5V1078" stroke="#EBF2FC" stroke-width="4"/>
<g opacity="0.5">
<path fill-rule="evenodd" clip-rule="evenodd" d="M706.05 72.3992C711.43 75.4183 714.745 80.9982 714.745 87.0386C714.745 100.877 714.745 125.914 714.745 138.284C714.745 139.795 713.919 141.189 712.571 141.939C711.223 142.7 709.571 142.7 708.224 141.939C697.289 135.802 675.257 123.442 663.029 116.575C657.649 113.554 654.333 107.976 654.333 101.944C654.333 88.0951 654.333 63.0628 654.333 50.6967C654.333 49.1861 655.159 47.7916 656.507 47.0363C657.844 46.282 659.507 46.282 660.855 47.0363C671.779 53.1718 693.811 65.5326 706.05 72.3992Z" fill="#287EE7"/>
<path fill-rule="evenodd" clip-rule="evenodd" d="M786 101.918C786 107.962 782.772 113.54 777.532 116.562C765.608 123.429 744.135 135.801 733.487 141.939C732.175 142.7 730.566 142.7 729.254 141.939C727.942 141.189 727.137 139.795 727.137 138.284C727.137 125.922 727.137 100.904 727.137 87.0637C727.137 81.0225 730.365 75.442 735.604 72.4224C747.528 65.5498 768.998 53.1758 779.65 47.0363C780.96 46.282 782.574 46.282 783.883 47.0363C785.193 47.7918 786 49.1863 786 50.6961C786 63.0595 786 88.0779 786 101.918Z" fill="#57A3FF"/>
<path fill-rule="evenodd" clip-rule="evenodd" d="M773.025 28.0354C774.344 28.8019 775.157 30.217 775.157 31.749C775.157 33.2809 774.344 34.6971 773.025 35.4625C762.3 41.6911 740.685 54.2404 728.683 61.2119C723.407 64.2758 716.905 64.2758 711.629 61.2119C699.627 54.2426 678.021 41.6987 667.309 35.4734C665.987 34.7079 665.177 33.2917 665.177 31.7598C665.177 30.2278 665.987 28.8117 667.309 28.0462C678.032 21.8187 699.637 9.26834 711.65 2.29792C716.926 -0.76597 723.428 -0.765976 728.704 2.29791C740.706 9.26616 762.304 21.8101 773.025 28.0354Z" fill="#9FCDFF"/>
<path fill-rule="evenodd" clip-rule="evenodd" d="M585.506 204.458C589.303 206.59 591.644 210.528 591.644 214.792C591.644 224.561 591.644 242.233 591.644 250.965C591.644 252.032 591.06 253.016 590.109 253.546C589.158 254.082 587.991 254.082 587.04 253.546C579.322 249.213 563.77 240.489 555.138 235.642C551.34 233.509 549 229.572 549 225.314C549 215.538 549 197.868 549 189.139C549 188.073 549.583 187.088 550.534 186.555C551.478 186.023 552.652 186.023 553.603 186.555C561.314 190.886 576.866 199.611 585.506 204.458Z" fill="#30B01E"/>
<path fill-rule="evenodd" clip-rule="evenodd" d="M641.941 225.295C641.941 229.561 639.663 233.499 635.964 235.632C627.547 240.479 612.389 249.213 604.874 253.546C603.947 254.083 602.812 254.083 601.885 253.546C600.959 253.016 600.391 252.032 600.391 250.965C600.391 242.24 600.391 224.58 600.391 214.81C600.391 210.545 602.67 206.606 606.368 204.475C614.784 199.624 629.94 190.889 637.459 186.555C638.384 186.023 639.523 186.023 640.447 186.555C641.372 187.088 641.941 188.073 641.941 189.139C641.941 197.866 641.941 215.526 641.941 225.295Z" fill="#47CF34"/>
<path fill-rule="evenodd" clip-rule="evenodd" d="M632.782 173.143C633.713 173.684 634.287 174.683 634.287 175.764C634.287 176.845 633.713 177.845 632.782 178.385C625.212 182.782 609.954 191.64 601.482 196.561C597.757 198.724 593.168 198.724 589.443 196.561C580.971 191.642 565.72 182.787 558.159 178.393C557.226 177.853 556.654 176.853 556.654 175.772C556.654 174.69 557.226 173.691 558.159 173.15C565.728 168.754 580.979 159.895 589.458 154.975C593.183 152.812 597.772 152.812 601.497 154.975C609.969 159.894 625.214 168.748 632.782 173.143Z" fill="#77F565"/>
</g>
</svg>
