<svg width="84" height="82" viewBox="0 0 84 82" fill="none" xmlns="http://www.w3.org/2000/svg">
<path d="M62.6561 9.995C62.2444 9.46697 61.472 9.36526 60.9311 9.76742C60.3904 10.1694 60.2861 10.9234 60.6981 11.4513C63.8336 15.469 65.4907 20.2699 65.4907 25.3347C65.4907 30.6616 63.5778 35.8512 60.1041 39.9474C59.5438 40.6081 58.9498 41.3135 58.3886 42.0342L54.8694 46.5528C52.9349 49.0365 51.5282 51.806 50.6798 54.798H47.7545V53.7054C47.7545 52.6091 47.2014 51.5845 46.2752 50.9649C46.0188 50.7934 45.8657 50.5098 45.8657 50.2064V47.8519H47.529C49.8036 47.8519 51.6542 46.0453 51.6542 43.8249C51.6542 41.6046 49.8038 39.7981 47.529 39.7981C45.2544 39.7981 43.4038 41.6046 43.4038 43.8249V45.4489H40.5954V43.8249C40.5954 41.6044 38.745 39.7981 36.4702 39.7981C34.1956 39.7981 32.345 41.6047 32.345 43.8251C32.345 46.0456 34.1956 47.8519 36.4702 47.8519H38.1337V50.2064C38.1337 50.5098 37.9806 50.7934 37.7243 50.9649C36.798 51.5844 36.2449 52.6091 36.2449 53.7054V54.798H33.3194C32.4713 51.806 31.0644 49.0365 29.13 46.5528L25.5457 41.9507C24.9982 41.2477 24.423 40.5672 23.9269 39.9845C20.4076 35.8519 18.4834 30.6106 18.5089 25.2262C18.5379 19.0936 21.0402 13.3315 25.5549 9.00124C30.0725 4.66804 36.0228 2.3312 42.3108 2.4052C47.7017 2.47343 52.7498 4.27422 56.9093 7.61332C57.4343 8.035 58.2099 7.96102 58.6418 7.44835C59.0737 6.93585 58.9979 6.17864 58.4729 5.75711C53.9422 2.12028 48.2137 0.0763651 42.3425 0.00237288C35.3974 -0.0897169 28.8189 2.50145 23.8294 7.28709C18.843 12.0698 16.0792 18.4368 16.0472 25.2151C16.019 31.1635 18.145 36.9543 22.0337 41.5206C22.5133 42.0839 23.0684 42.7406 23.586 43.4051L27.1702 48.0071C28.7862 50.0821 29.992 52.379 30.7689 54.851C29.825 55.0604 29.1178 55.8845 29.1178 56.8684V61.5213C29.1178 62.6191 29.9985 63.5178 31.1062 63.5853V65.1638C31.1062 65.8275 31.6573 66.3653 32.337 66.3653C33.0168 66.3653 33.5678 65.8275 33.5678 65.1638V63.5918H50.4309V70.4878L47.8365 73.7652H36.162L33.5642 70.4837C33.5166 69.8624 32.9854 69.3726 32.3369 69.3726C31.6572 69.3726 31.1061 69.9104 31.1061 70.5741C31.1061 71.047 31.2692 71.5139 31.5658 71.8887L34.2922 75.3329C34.634 75.7645 35.1381 76.0494 35.6842 76.1368C35.8505 79.3971 38.6194 82 41.9998 82C45.3802 82 48.1491 79.3973 48.3149 76.1368C48.861 76.0494 49.3653 75.7645 49.7071 75.3327L52.4337 71.8883C52.7298 71.5137 52.893 71.047 52.893 70.574V63.585C54.0009 63.5178 54.8816 62.6191 54.8816 61.5211V56.8683C54.8816 55.8844 54.1742 55.0601 53.2303 54.8508C54.0074 52.379 55.2133 50.0819 56.8291 48.0069L60.3484 43.4884C60.8811 42.8041 61.4566 42.1208 62.0005 41.4794C65.8388 36.9531 67.9525 31.2193 67.9525 25.3345C67.9525 19.7392 66.1212 14.4347 62.6561 9.995ZM45.8658 43.8251C45.8658 42.9297 46.6119 42.2013 47.5292 42.2013C48.4465 42.2013 49.1926 42.9297 49.1926 43.8253C49.1926 44.7206 48.4465 45.4491 47.5292 45.4491H45.8658V43.8251ZM41.9998 79.597C39.9882 79.597 38.3309 78.0877 38.1538 76.1682H45.8456C45.6688 78.0877 44.0114 79.597 41.9998 79.597ZM38.7067 53.7054C38.7067 53.4022 38.8597 53.1187 39.1161 52.9471C40.0423 52.3273 40.5954 51.3027 40.5954 50.2064V47.8519H43.4038V50.2064C43.4038 51.3027 43.9569 52.3272 44.8834 52.9471C45.1397 53.1187 45.2926 53.4022 45.2926 53.7054V54.798H38.7065V53.7054H38.7067ZM36.4705 45.4491C35.5532 45.4491 34.807 44.7207 34.807 43.8251C34.807 42.9297 35.5532 42.2013 36.4705 42.2013C37.3877 42.2013 38.1338 42.9297 38.1338 43.8251V45.4491H36.4705ZM52.4198 61.1886H31.5798V57.2011H52.4198V61.1886Z" fill="white"/>
</svg>
