<svg width="24" height="24" viewBox="0 0 24 24" fill="none" xmlns="http://www.w3.org/2000/svg">
<g clip-path="url(#clip0_43_220)">
<path d="M24 12.074C24 5.40502 18.6269 -0.000976562 11.9999 -0.000976562C5.36995 0.000523438 -0.00305176 5.40502 -0.00305176 12.0755C-0.00305176 18.101 4.38595 23.096 10.1219 24.002V15.5645H7.07695V12.0755H10.1249V9.41302C10.1249 6.38752 11.9174 4.71652 14.6579 4.71652C15.9719 4.71652 17.3444 4.95202 17.3444 4.95202V7.92202H15.8309C14.3414 7.92202 13.8764 8.85352 13.8764 9.80902V12.074H17.2034L16.6724 15.563H13.8749V24.0005C19.6109 23.0945 24 18.0995 24 12.074Z" fill="#9FA7B0"/>
</g>
<defs>
<clipPath id="clip0_43_220">
<rect width="24" height="24" fill="white"/>
</clipPath>
</defs>
</svg>
